<svg xmlns="http://www.w3.org/2000/svg" xmlns:xlink="http://www.w3.org/1999/xlink" viewBox="0 0 210.56 84.94"><defs><style>.cls-1{fill:none;}.cls-2{isolation:isolate;}.cls-3{clip-path:url(#clip-path);}.cls-4{clip-path:url(#clip-path-2);}.cls-5{opacity:0.95;mix-blend-mode:multiply;}.cls-6{clip-path:url(#clip-path-3);}.cls-7{fill:#982b2c;}</style><clipPath id="clip-path" transform="translate(-855.22 -501.03)"><rect class="cls-1" x="846.22" y="494.03" width="228.56" height="92.94"/></clipPath><clipPath id="clip-path-2" transform="translate(-855.22 -501.03)"><rect class="cls-1" x="846.22" y="494.03" width="228.56" height="92.94"/></clipPath><clipPath id="clip-path-3" transform="translate(-855.22 -501.03)"><rect class="cls-1" x="846.22" y="494.03" width="228.56" height="92.94"/></clipPath></defs><g class="cls-2"><g id="Layer_1" data-name="Layer 1"><g class="cls-3"><g class="cls-4"><g class="cls-5"><g class="cls-6"><path class="cls-7" d="M1063.66,512a30.85,30.85,0,0,0-8.12-4.85,14.38,14.38,0,0,0-3.45-.8,15,15,0,0,1-5.14-1.46c-1.73-.95-4-1.11-6.29-1.26q-1-.06-2-.15c-7.6-.75-15.22-1.37-21.77-1.9l-.48,0a5.49,5.49,0,0,0-2.8.16c-2.25,1.29-4.41,1.1-6.5.92l-.84-.08q-7.92-.6-15.85-1.16c-.49,0-1-.11-1.54-.19a5.05,5.05,0,0,0-2.72,0c-2.92,1.79-5.73,1.43-8.45,1.09a26.94,26.94,0,0,0-2.76-.25,16.39,16.39,0,0,1-2.31-.29,5.82,5.82,0,0,0-3.12-.06c-3,1.44-6,1.24-8.92,1s-5.76-.38-8.32,1.12l-.29.18-.34,0c-3.24-.4-6.36.21-9.67.85-1.83.36-3.73.73-5.64.91a68.53,68.53,0,0,0-7.14,1.17,64.12,64.12,0,0,1-8.19,1.27,31.48,31.48,0,0,0-7.44,1.83c-.89.3-1.78.6-2.67.86-1.24.38-2.51.64-3.74.9a23.38,23.38,0,0,0-6.34,2,20.13,20.13,0,0,1-5.56,1.74,20.27,20.27,0,0,0-4.72,1.37,39.14,39.14,0,0,1-10.38,3.56,12.31,12.31,0,0,0-4.79,2.25,15.08,15.08,0,0,1-4.85,2.4c-3.91.92-6.89,3.86-9.78,6.7l-.33.32c-3.11,3-4.64,6.31-4.7,10,0,1.38-.15,2.77-.27,4.11-.06.7-.13,1.39-.18,2.09-.41,5.92,1.24,10.2,5.91,15.29a45.57,45.57,0,0,0,10.46,8.52l1.06.63c3.57,2.13,6.93,4.15,11.06,4.19a2.32,2.32,0,0,1,1.62.68c1.3,1.46,3,1.59,5,1.75a9.8,9.8,0,0,1,4.94,1.28c2.36,1.59,5,1.75,7.7,1.92,1.11.07,2.25.14,3.37.31,3.63.54,7.38.82,11,1.08l3.79.29v-.1l1,.09,4.56.41c3.37.31,6.85.63,10.28.86l2.36.19c4.08.33,7.93.65,11.9-.61a11.5,11.5,0,0,1,5.09,0,17.43,17.43,0,0,0,3.06.25,19.79,19.79,0,0,0,3.2-.5,17,17,0,0,1,4.56-.53,39.1,39.1,0,0,0,10.5-1.11l.85-.16a50.43,50.43,0,0,0,17.75-6.89,16.87,16.87,0,0,0,7.68-17.28,2.37,2.37,0,0,0-.7-1.16l-.83-.71c-1.9-1.62-3.7-3.16-6.16-3.45a2.41,2.41,0,0,0-.8,0,2.46,2.46,0,0,0,.17.64c1.43,3.67,1.07,7.2-1.16,11.46a20.59,20.59,0,0,1-8.91,8.83,20.47,20.47,0,0,0-2.62,1.71c-2.4,1.74-5.12,3.71-8.92,2.46a4.16,4.16,0,0,0-1.36.44c-.25.11-.5.22-.74.31a42.33,42.33,0,0,1-11.49,2.1,60.42,60.42,0,0,0-7.79,1c-3.63.82-7.73.06-11.28-.72a11.66,11.66,0,0,0-5.32.46,15.27,15.27,0,0,1-5.18.61c-4.35-.45-8.8-.81-13.1-1.15-2.89-.23-5.79-.46-8.68-.72l-.91-.07c-1.5-.09-3.2-.2-4.34-1.16-1.46-1.23-3-1.4-4.88-1.59l-1.11-.13a34.55,34.55,0,0,1-5.83-1.47l-.92-.29A67.15,67.15,0,0,1,876,568.87c-6.35-3.91-8.32-5.24-11.42-9.76-1-1.41-2-3-1.61-4.42a6.48,6.48,0,0,0-.29-3.23c-.43-1.69-.92-3.6.3-5.68a9,9,0,0,0,.79-2.8,7.71,7.71,0,0,1,1.47-4q1.23-1.35,2.43-2.73c4-4.59,8.2-9.34,14.55-11.41a64.35,64.35,0,0,0,6.61-2.74c1.35-.63,2.76-1.27,4.17-1.85,1.18-.48,2.42-.87,3.62-1.25a21.75,21.75,0,0,0,6.18-2.64c2-1.39,4.15-1.37,6.08-1.35s3.71,0,5.1-1.35l.29-.29h.41a23.39,23.39,0,0,0,6.75-1.41,27.34,27.34,0,0,1,6.44-1.43,33.23,33.23,0,0,0,4.8-.77c2.89-.6,5.88-1.23,9-.51a6.22,6.22,0,0,0,.92-.43,6.69,6.69,0,0,1,1.24-.58,38,38,0,0,1,7-1.31,29.36,29.36,0,0,0,8.1-1.79,4.42,4.42,0,0,1,2.44-.09,8.56,8.56,0,0,0,.92.1c1,0,2.06.07,3.08.12,3.51.17,6.83.34,10.28-.74a12.7,12.7,0,0,1,5.59,0,13.48,13.48,0,0,0,4.35.17l.4-.08c3.23-.64,6.28-1.23,9.59-.73a22.4,22.4,0,0,0,2.84.26c1.88,0,3.78.19,5.62.35,4.36.4,8.48.77,12.6-.66l.21-.07,4.12.36,15.89,1.42.37,0a3.23,3.23,0,0,1,2.12.65c1.72,1.61,3.86,1.76,6.12,1.92a24.25,24.25,0,0,1,2.79.3c1.49.26,3.08.45,4.84.58a3.25,3.25,0,0,1,3.12,2.38c.32,1.36.58,3.33-.83,4.8-1.18,1.22-2.44,2.39-3.66,3.53l-1.49,1.39a1.62,1.62,0,0,0-.12,2.37c.94,1.36,1.47,1.78,2,1.58a83.43,83.43,0,0,0,9.89-4.06,10.4,10.4,0,0,0,2.77-2.51c.21-.24.41-.47.62-.69a1.61,1.61,0,0,0,.32-.87c-.15-.41-.3-.89-.44-1.36-.43-1.42-.87-2.88-1.68-3.57" transform="translate(-855.22 -501.03)"/></g></g></g></g></g></g></svg>